<?xml version="1.0" standalone="no"?>
<!DOCTYPE svg PUBLIC "-//W3C//DTD SVG 20010904//EN"
 "http://www.w3.org/TR/2001/REC-SVG-20010904/DTD/svg10.dtd">
<svg version="1.0" xmlns="http://www.w3.org/2000/svg"
 width="362.000000pt" height="245.000000pt" viewBox="0 0 362.000000 245.000000"
 preserveAspectRatio="xMidYMid meet">

<g transform="translate(0.000000,245.000000) scale(0.100000,-0.100000)"
fill="#ececec" stroke="none">
<path d="M2691 1506 c-6 -7 -16 -40 -22 -72 -6 -33 -26 -130 -45 -217 -19 -87
-34 -169 -34 -183 0 -29 26 -42 45 -23 7 8 35 119 61 246 38 191 45 235 34
248 -15 19 -24 19 -39 1z"/>
<path d="M1525 1490 c-22 -12 -50 -32 -62 -46 l-23 -25 -28 32 c-39 43 -100
50 -162 16 -37 -20 -51 -36 -83 -97 -37 -72 -57 -95 -107 -116 l-25 -11 25
-13 c15 -8 56 -14 100 -15 64 0 80 4 107 24 17 13 37 37 44 53 14 35 44 57 68
51 14 -4 20 -18 24 -62 12 -134 97 -215 227 -215 71 0 107 14 154 60 51 51 69
99 64 174 -4 80 -35 134 -100 177 -57 38 -164 44 -223 13z"/>
<path d="M2347 1372 c-53 -53 -97 -104 -97 -112 0 -22 186 -205 207 -205 10 0
19 9 21 20 2 14 -21 44 -73 95 -41 41 -75 81 -75 90 0 8 35 50 77 92 64 65 76
81 67 95 -6 9 -15 18 -20 20 -5 2 -53 -41 -107 -95z"/>
<path d="M2872 1458 c-21 -21 -14 -32 63 -109 41 -40 75 -81 75 -89 0 -8 -35
-50 -77 -92 -66 -66 -76 -81 -67 -96 6 -9 17 -17 23 -17 12 0 211 193 211 204
0 8 -203 211 -211 211 -3 0 -10 -5 -17 -12z"/>
<path d="M1242 1071 c-175 -84 -335 -246 -430 -436 -61 -124 -113 -281 -136
-417 l-7 -38 210 0 209 0 7 63 c22 210 80 363 168 445 l25 24 101 -151 c55
-82 110 -155 120 -161 12 -6 123 -10 294 -10 262 0 275 1 301 21 34 27 35 77
2 116 l-24 28 -218 5 -219 5 -37 105 c-21 58 -57 156 -80 218 -55 153 -89 191
-183 206 -32 5 -52 1 -103 -23z"/>
<path d="M2537 777 c-16 -11 -106 -242 -153 -389 l-18 -58 -178 0 c-177 0
-179 0 -203 -25 -30 -30 -32 -64 -4 -99 l20 -26 222 0 c122 0 227 4 232 8 25
18 41 55 120 281 59 167 83 250 79 267 -12 47 -78 70 -117 41z"/>
</g>
</svg>
